:SAMPLES-PER-SECOND 30
:FULLY-SPECIFIED
:DEGREES
950
root  77.7589 38.6929 0.722616 -11.6679 -73.9164 10.9963
RightUpLeg  -4.97364 -6.33976 0.398455
RightLeg  17.3467 7.98446 1.39121
RightFoot  -12.8183 -0.147157 -4.70802
RightToes  -1.74624e-010 0 -3.6325e-017
Spine  5.29588 -0.401528 8.32461
Spine1  5.02172 1.32338 -3.87151
HEad  -12.3095 -23.8453 10.9818
LeftShoulder1  -0.35271 4.41971 -32.3718
LeftArm  3.46172 7.35147 -38.6075
LeftForeArm  20.2897 -20.7408 -4.35442
LeftHand  0.0679867 8.38963 4.14324
RightShoulder  -1.08697 -6.36758 31.4027
RightArm  24.2414 1.10817 45.0672
RightForeArm  9.55929 13.471 7.83718
RightHand  -0.565723 3.89219 -7.50152
LeftUpLeg  -12.7091 3.32962 -0.722708
LeftLeg  41.4853 5.40533 5.48661
LeftFoot  -0.833165 0.218057 -2.34904
LeftToes  2.27646e-009 -8.13696e-011 -1.44715e-011
951
root  77.2568 38.7244 0.968458 -14.8511 -76.5343 14.1248
RightUpLeg  -3.97205 -5.79193 0.182876
RightLeg  17.0392 10.057 1.26825
RightFoot  -13.185 -0.166597 -4.80317
RightToes  -1.74624e-010 0 -3.6325e-017
Spine  5.12715 -0.282854 8.17705
Spine1  5.16466 1.38312 -4.06609
HEad  -12.4576 -25.5656 11.1784
LeftShoulder1  -0.364349 4.44478 -32.57
LeftArm  3.30783 7.63378 -38.5963
LeftForeArm  19.3849 -21.6061 -4.15669
LeftHand  0.112249 9.3809 4.53661
RightShoulder  -1.0891 -6.38964 31.1879
RightArm  23.2068 2.31414 45.6738
RightForeArm  10.7739 12.867 7.9237
RightHand  -0.293798 5.42835 -3.42722
LeftUpLeg  -13.9486 0.864745 -0.664353
LeftLeg  37.3193 4.09223 3.70681
LeftFoot  -2.54174 0.321039 -3.95312
LeftToes  2.27646e-009 -8.13696e-011 -1.44715e-011
952
root  76.729 38.7477 1.21454 -19.0446 -78.6762 18.1462
RightUpLeg  -2.88691 -5.92438 -0.294341
RightLeg  16.9456 12.3814 1.51623
RightFoot  -13.4314 -0.192226 -5.57187
RightToes  -1.74624e-010 0 -3.6325e-017
Spine  5.7491 -0.290731 8.42975
Spine1  4.28328 1.49838 -4.99776
HEad  -12.3366 -26.4477 11.9227
LeftShoulder1  -0.313001 4.31785 -32.2999
LeftArm  3.3575 8.21838 -38.7439
LeftForeArm  18.9813 -22.3743 -4.04558
LeftHand  0.0771115 9.01009 3.85097
RightShoulder  -1.12442 -6.44603 31.6694
RightArm  23.6101 2.50936 45.6312
RightForeArm  11.2667 13.0241 7.89237
RightHand  -0.278478 5.31682 -3.32077
LeftUpLeg  -14.949 -1.25719 -0.533165
LeftLeg  32.4259 2.20858 1.86096
LeftFoot  -3.03939 0.355258 -4.63723
LeftToes  2.27646e-009 -8.13696e-011 -1.44715e-011
953
root  76.1636 38.7902 1.41627 -25.0216 -80.6905 24.1248
RightUpLeg  -1.7131 -5.85353 -0.823567
RightLeg  16.3541 14.5464 1.62945
RightFoot  -13.7652 -0.212583 -5.64641
RightToes  -1.74624e-010 0 -3.6325e-017
Spine  5.43161 0.0589341 7.72743
Spine1  4.59722 1.69466 -4.8822
HEad  -12.4987 -27.7589 11.7642
LeftShoulder1  -0.433079 4.61993 -32.6725
LeftArm  3.04237 7.88713 -39.0963
LeftForeArm  19.9001 -22.7014 -3.97627
LeftHand  0.0230501 7.87545 2.77512
RightShoulder  -1.06989 -6.33104 31.2827
RightArm  23.6616 2.82069 46.0499
RightForeArm  10.6587 12.9675 7.97426
RightHand  -0.35218 6.10287 -3.89135
LeftUpLeg  -15.6887 -2.35803 -0.319925
LeftLeg  26.6752 0.227178 0.44907
LeftFoot  -2.96001 0.38579 -5.02071
LeftToes  2.27646e-009 -8.13696e-011 -1.44715e-011
954
root  75.5352 38.827 1.60977 -32.1748 -82.1906 31.4629
RightUpLeg  -0.580744 -5.70821 -1.32563
RightLeg  15.6041 16.201 1.52929
RightFoot  -13.9749 -0.232088 -5.99116
RightToes  -1.74624e-010 0 -3.6325e-017
Spine  4.56141 0.339932 6.99516
Spine1  5.46888 1.86264 -4.94464
HEad  -12.9795 -29.8202 12.0184
LeftShoulder1  -0.488962 4.76072 -32.762
LeftArm  2.33418 7.70771 -39.7467
LeftForeArm  20.5885 -22.9127 -3.93449
LeftHand  0.0146423 7.04862 2.54551
RightShoulder  -1.00846 -6.19656 30.8869
RightArm  22.8335 3.0467 46.6573
RightForeArm  12.1482 12.614 7.96583
RightHand  -0.30968 5.05913 -3.7351
LeftUpLeg  -16.2101 -2.51643 -0.131091
LeftLeg  20.142 -1.25795 -0.198032
LeftFoot  -2.81898 0.437739 -5.64908
LeftToes  2.27646e-009 -8.13696e-011 -1.44715e-011
955
root  74.8673 38.8552 1.80443 -38.463 -83.2405 37.7841
RightUpLeg  1.04221 -5.79326 -1.76712
RightLeg  14.3461 17.6508 1.26255
RightFoot  -14.2143 -0.243379 -5.87069
RightToes  -1.74624e-010 0 -3.6325e-017
Spine  4.21692 0.710492 6.22626
Spine1  5.71018 2.08792 -4.75174
HEad  -13.5182 -31.5816 12.5608
LeftShoulder1  -0.465832 4.68699 -33.2175
LeftArm  1.55158 7.86721 -40.1257
LeftForeArm  20.6336 -23.3192 -3.94755
LeftHand  0.0987139 9.90198 3.31883
RightShoulder  -1.04685 -6.30078 30.8717
RightArm  22.6481 2.64088 46.3316
RightForeArm  12.5297 12.7315 7.84425
RightHand  -0.273742 4.8316 -3.4
LeftUpLeg  -16.2303 -1.18005 -0.170183
LeftLeg  13.2114 -2.60694 -0.313695
LeftFoot  -2.47621 0.476449 -5.94341
LeftToes  2.27646e-009 -8.13696e-011 -1.44715e-011
